<svg xmlns="http://www.w3.org/2000/svg" xmlns:xlink="http://www.w3.org/1999/xlink" width="100" zoomAndPan="magnify" viewBox="0 0 75 74.999997" height="100" preserveAspectRatio="xMidYMid meet" version="1.0"><defs><g/></defs><path fill="#231f20" d="M 4.511719 44.167969 C 5.328125 44.722656 6.371094 45.183594 7.507812 45.496094 C 7.222656 51.367188 11.855469 57.273438 18.035156 57.824219 C 20.085938 58.007812 22.324219 57.71875 24.160156 56.75 C 25.359375 56.113281 26.394531 55.128906 27.371094 54.203125 C 31.507812 58.910156 38.949219 59.808594 43.96875 55.816406 C 48.03125 62.90625 60.464844 59.085938 60.78125 51.285156 C 62.085938 52.65625 64.339844 52.808594 66.167969 52.398438 C 67.359375 52.132812 68.550781 51.65625 69.476562 50.84375 C 70.496094 49.953125 71.042969 48.621094 71.4375 47.359375 C 72.136719 45.113281 71.742188 42.746094 70.40625 40.863281 C 71.851562 40.617188 73.679688 38.945312 74.289062 36.132812 C 74.894531 33.320312 72.804688 29.890625 70.402344 29.375 C 70.558594 28.558594 70.675781 27.738281 70.757812 26.929688 C 70.851562 26.007812 70.917969 25.0625 70.734375 24.152344 C 70.453125 22.777344 69.832031 21.503906 69.011719 20.375 C 67.296875 18.027344 64.660156 16.425781 61.878906 15.667969 C 59.433594 15.003906 56.789062 15.117188 54.492188 16.117188 C 52.695312 13.59375 49.402344 12.417969 46.410156 12.179688 C 43.121094 11.914062 39.539062 12.871094 37.484375 15.59375 C 34.921875 14.125 32.140625 13.019531 29.148438 12.984375 C 26.191406 12.949219 23.277344 14.300781 21.058594 16.179688 C 18.234375 18.578125 16.480469 22.140625 16.855469 25.617188 C 14.828125 24.1875 12.375 23.519531 9.710938 24.136719 C 5.660156 25.078125 2.792969 28.605469 1.507812 32.386719 C 0.105469 36.507812 0.660156 41.542969 4.511719 44.167969 " fill-opacity="1" fill-rule="nonzero"/><path fill="#ffffff" d="M 7.355469 43.558594 C 8.101562 44.066406 9.054688 44.488281 10.09375 44.777344 C 9.832031 50.144531 14.070312 55.546875 19.726562 56.050781 C 21.601562 56.21875 23.648438 55.957031 25.328125 55.070312 C 26.425781 54.488281 27.371094 53.585938 28.265625 52.738281 C 32.050781 57.046875 38.859375 57.871094 43.449219 54.214844 C 47.167969 60.703125 58.542969 57.207031 58.832031 50.074219 C 60.027344 51.324219 62.089844 51.464844 63.761719 51.089844 C 64.851562 50.847656 65.941406 50.410156 66.789062 49.667969 C 67.71875 48.851562 68.222656 47.636719 68.582031 46.480469 C 69.222656 44.425781 68.859375 42.261719 67.636719 40.535156 C 68.960938 40.3125 70.632812 38.78125 71.1875 36.207031 C 71.746094 33.632812 69.832031 30.496094 67.636719 30.023438 C 67.777344 29.277344 67.882812 28.527344 67.960938 27.785156 C 68.046875 26.945312 68.105469 26.078125 67.9375 25.246094 C 67.679688 23.992188 67.113281 22.824219 66.363281 21.792969 C 64.792969 19.644531 62.382812 18.179688 59.835938 17.484375 C 57.601562 16.878906 55.179688 16.980469 53.078125 17.894531 C 51.4375 15.585938 48.421875 14.511719 45.683594 14.289062 C 42.671875 14.050781 39.398438 14.925781 37.519531 17.414062 C 35.171875 16.074219 32.632812 15.058594 29.890625 15.027344 C 27.1875 14.996094 24.519531 16.234375 22.492188 17.953125 C 19.90625 20.144531 17.476562 23.402344 17.816406 26.582031 C 15.960938 25.273438 14.546875 24.664062 12.109375 25.234375 C 8.402344 26.097656 5.78125 29.324219 4.605469 32.777344 C 3.320312 36.550781 3.828125 41.160156 7.355469 43.558594 " fill-opacity="1" fill-rule="nonzero"/><path fill="#231f20" d="M 48.246094 17.589844 C 48.246094 17.589844 53.617188 17.226562 57.398438 20.851562 C 57.398438 20.851562 56.097656 18.152344 53.308594 16.738281 C 52.242188 16.195312 50.785156 16.167969 48.246094 17.589844 " fill-opacity="1" fill-rule="nonzero"/><path fill="#231f20" d="M 15.550781 26.558594 C 15.632812 26.550781 16.398438 25.527344 17.816406 26.582031 C 17.816406 26.582031 18.589844 24.90625 20.574219 24.082031 C 20.574219 24.082031 18.96875 26.363281 18.273438 28.214844 C 18.273438 28.214844 17.269531 26.644531 15.550781 26.558594 " fill-opacity="1" fill-rule="nonzero"/><path fill="#231f20" d="M 23.621094 52.152344 C 23.621094 52.152344 26.601562 56.457031 31.136719 52.289062 C 31.136719 52.289062 26.289062 53.539062 23.621094 52.152344 " fill-opacity="1" fill-rule="nonzero"/><g fill="#000000" fill-opacity="1"><g transform="translate(8.119718, 40.624866)"><g><path d="M 0.59375 0.328125 C 1.3125 0.546875 1.84375 -1.1875 2.203125 -2.171875 C 2.328125 -2.5 2.53125 -2.625 2.875 -2.5625 C 3.625 -2.421875 4.40625 -2.4375 5.15625 -2.46875 C 5.796875 -2.515625 6.1875 -2.34375 6.359375 -1.671875 C 6.59375 -0.78125 7.40625 0.265625 7.9375 0 C 8.28125 -0.15625 8.1875 -0.71875 8.09375 -0.984375 C 7.375 -3.265625 5.078125 -7.90625 4.96875 -8.0625 C 4.4375 -8.65625 4.046875 -8.609375 3.6875 -7.859375 C 2.78125 -6.078125 2.03125 -4.21875 1.03125 -2.46875 C 0.640625 -1.828125 0.421875 -1.078125 0.328125 -0.3125 C 0.296875 -0.046875 0.28125 0.234375 0.59375 0.328125 Z M 3.03125 -3.90625 C 3.421875 -4.765625 3.75 -5.484375 4.171875 -6.421875 L 5.28125 -3.90625 Z M 3.03125 -3.90625 "/></g></g></g><g fill="#000000" fill-opacity="1"><g transform="translate(16.60692, 40.624866)"><g><path d="M 1.6875 -1.375 C 3.734375 1.15625 7.40625 -0.21875 8.421875 -3.421875 C 9.03125 -5.28125 8.953125 -7.15625 8.90625 -9.046875 C 8.90625 -9.28125 8.734375 -9.78125 8.390625 -9.78125 C 7.84375 -9.75 7.859375 -8.6875 7.9375 -8.046875 C 8.03125 -7.0625 7.96875 -6.078125 7.75 -5.125 C 7.46875 -4.015625 7.046875 -2.984375 6.140625 -2.21875 C 4.46875 -0.78125 2.734375 -1.171875 1.875 -3.21875 C 1.328125 -4.53125 1.40625 -6.125 1.40625 -8.171875 C 1.40625 -8.65625 1.40625 -9.125 1.34375 -9.59375 C 1.34375 -9.765625 1.203125 -9.921875 0.984375 -9.921875 C 0.65625 -9.953125 0.5625 -9.4375 0.5 -9.046875 C 0.328125 -7.828125 0.265625 -6.59375 0.34375 -5.34375 C 0.453125 -3.90625 0.765625 -2.546875 1.6875 -1.375 Z M 1.6875 -1.375 "/></g></g></g><g fill="#000000" fill-opacity="1"><g transform="translate(25.8566, 40.624866)"><g><path d="M 0.828125 0.578125 C 1.5 0.59375 1.53125 -0.21875 1.546875 -0.90625 C 1.59375 -2.734375 1.609375 -6.5 1.796875 -6.953125 C 2.796875 -6.09375 3.734375 -5.296875 4.65625 -4.5 C 5.734375 -3.5625 6.578125 -3.578125 7.625 -4.5625 C 8.34375 -5.234375 9.03125 -5.921875 9.859375 -6.71875 C 10.21875 -4.53125 9.796875 -2.34375 10.484375 -0.5 C 10.640625 -0.09375 10.875 0.375 11.40625 0.21875 C 11.890625 0.078125 11.828125 -0.40625 11.8125 -0.8125 C 11.8125 -0.84375 11.796875 -0.875 11.796875 -0.90625 C 11.640625 -2.140625 11.59375 -3.375 11.546875 -4.609375 C 11.53125 -5.640625 11.40625 -6.65625 11.28125 -7.65625 C 11.125 -8.734375 10.53125 -8.96875 9.71875 -8.28125 C 8.671875 -7.359375 7.609375 -6.46875 6.671875 -5.46875 C 6.078125 -4.84375 5.90625 -4.921875 5.390625 -5.46875 C 4.4375 -6.421875 3.375 -7.25 2.46875 -8.265625 C 1.890625 -8.9375 1.078125 -8.859375 0.78125 -8.203125 C 0.65625 -7.9375 0.640625 -7.640625 0.640625 -7.34375 C 0.59375 -5.890625 0.546875 -4.4375 0.40625 -2.984375 C 0.328125 -2.015625 0.359375 -1.03125 0.34375 -0.03125 C 0.34375 0.28125 0.453125 0.546875 0.828125 0.578125 Z M 0.828125 0.578125 "/></g></g></g><g fill="#000000" fill-opacity="1"><g transform="translate(37.956185, 40.624866)"><g><path d="M 0.828125 0.578125 C 1.5 0.59375 1.53125 -0.21875 1.546875 -0.90625 C 1.59375 -2.734375 1.609375 -6.5 1.796875 -6.953125 C 2.796875 -6.09375 3.734375 -5.296875 4.65625 -4.5 C 5.734375 -3.5625 6.578125 -3.578125 7.625 -4.5625 C 8.34375 -5.234375 9.03125 -5.921875 9.859375 -6.71875 C 10.21875 -4.53125 9.796875 -2.34375 10.484375 -0.5 C 10.640625 -0.09375 10.875 0.375 11.40625 0.21875 C 11.890625 0.078125 11.828125 -0.40625 11.8125 -0.8125 C 11.8125 -0.84375 11.796875 -0.875 11.796875 -0.90625 C 11.640625 -2.140625 11.59375 -3.375 11.546875 -4.609375 C 11.53125 -5.640625 11.40625 -6.65625 11.28125 -7.65625 C 11.125 -8.734375 10.53125 -8.96875 9.71875 -8.28125 C 8.671875 -7.359375 7.609375 -6.46875 6.671875 -5.46875 C 6.078125 -4.84375 5.90625 -4.921875 5.390625 -5.46875 C 4.4375 -6.421875 3.375 -7.25 2.46875 -8.265625 C 1.890625 -8.9375 1.078125 -8.859375 0.78125 -8.203125 C 0.65625 -7.9375 0.640625 -7.640625 0.640625 -7.34375 C 0.59375 -5.890625 0.546875 -4.4375 0.40625 -2.984375 C 0.328125 -2.015625 0.359375 -1.03125 0.34375 -0.03125 C 0.34375 0.28125 0.453125 0.546875 0.828125 0.578125 Z M 0.828125 0.578125 "/></g></g></g><g fill="#000000" fill-opacity="1"><g transform="translate(50.05577, 40.624866)"><g><path d="M 0.828125 0.578125 C 1.5 0.59375 1.53125 -0.21875 1.546875 -0.90625 C 1.59375 -2.734375 1.609375 -6.5 1.796875 -6.953125 C 2.796875 -6.09375 3.734375 -5.296875 4.65625 -4.5 C 5.734375 -3.5625 6.578125 -3.578125 7.625 -4.5625 C 8.34375 -5.234375 9.03125 -5.921875 9.859375 -6.71875 C 10.21875 -4.53125 9.796875 -2.34375 10.484375 -0.5 C 10.640625 -0.09375 10.875 0.375 11.40625 0.21875 C 11.890625 0.078125 11.828125 -0.40625 11.8125 -0.8125 C 11.8125 -0.84375 11.796875 -0.875 11.796875 -0.90625 C 11.640625 -2.140625 11.59375 -3.375 11.546875 -4.609375 C 11.53125 -5.640625 11.40625 -6.65625 11.28125 -7.65625 C 11.125 -8.734375 10.53125 -8.96875 9.71875 -8.28125 C 8.671875 -7.359375 7.609375 -6.46875 6.671875 -5.46875 C 6.078125 -4.84375 5.90625 -4.921875 5.390625 -5.46875 C 4.4375 -6.421875 3.375 -7.25 2.46875 -8.265625 C 1.890625 -8.9375 1.078125 -8.859375 0.78125 -8.203125 C 0.65625 -7.9375 0.640625 -7.640625 0.640625 -7.34375 C 0.59375 -5.890625 0.546875 -4.4375 0.40625 -2.984375 C 0.328125 -2.015625 0.359375 -1.03125 0.34375 -0.03125 C 0.34375 0.28125 0.453125 0.546875 0.828125 0.578125 Z M 0.828125 0.578125 "/></g></g></g><g fill="#000000" fill-opacity="1"><g transform="translate(62.155355, 40.624866)"><g><path d="M 0.71875 -0.015625 C 1.03125 0.03125 1.21875 -0.109375 1.25 -0.40625 C 1.28125 -0.6875 1.171875 -0.90625 0.859375 -0.953125 C 0.578125 -0.953125 0.359375 -0.84375 0.328125 -0.53125 C 0.28125 -0.25 0.421875 -0.046875 0.71875 -0.015625 Z M 0.71875 -0.015625 "/></g></g></g><g fill="#000000" fill-opacity="1"><g transform="translate(63.730298, 40.624866)"><g><path d="M 0.71875 -0.015625 C 1.03125 0.03125 1.21875 -0.109375 1.25 -0.40625 C 1.28125 -0.6875 1.171875 -0.90625 0.859375 -0.953125 C 0.578125 -0.953125 0.359375 -0.84375 0.328125 -0.53125 C 0.28125 -0.25 0.421875 -0.046875 0.71875 -0.015625 Z M 0.71875 -0.015625 "/></g></g></g><g fill="#000000" fill-opacity="1"><g transform="translate(65.305241, 40.624866)"><g><path d="M 0.71875 -0.015625 C 1.03125 0.03125 1.21875 -0.109375 1.25 -0.40625 C 1.28125 -0.6875 1.171875 -0.90625 0.859375 -0.953125 C 0.578125 -0.953125 0.359375 -0.84375 0.328125 -0.53125 C 0.28125 -0.25 0.421875 -0.046875 0.71875 -0.015625 Z M 0.71875 -0.015625 "/></g></g></g></svg>